# xmcd CD database file
#
# Track frame offsets:
#	150
#	8445
#	20160
#	34172
#	44170
#	58417
#	78660
#	91547
#	106140
#	125795
#	134675
#	143195
#	158367
#
# Disc length: 2263 seconds
#
# Revision: 11
# Processed by: cddbd v1.5.2PL0 Copyright (c) Steve Scherf et al.
# Submitted via: CDex 1.70beta2
#
DISCID=af08d50d
DTITLE=White Stripes - De Stijl
DYEAR=2001
DGENRE=Rock
TTITLE0=You're Pretty Good Looking (For A Girl)
TTITLE1=Hello Operator
TTITLE2=Little Bird
TTITLE3=Apple Blossom
TTITLE4=I'm Bound To Pack It Up
TTITLE5=Death Letter
TTITLE6=Sister, Do You Know My Name?
TTITLE7=Truth Doesn't Make A Noise
TTITLE8=A Boy's Best Friend
TTITLE9=Let's Build A Home
TTITLE10=Jumble, Jumble
TTITLE11=Why Can't You Be Nicer To Me?
TTITLE12=Your Southern Can Is Mine
EXTD=YEAR: 2001
EXTT0=
EXTT1=
EXTT2=
EXTT3=
EXTT4=
EXTT5=
EXTT6=
EXTT7=
EXTT8=
EXTT9=
EXTT10=
EXTT11=
EXTT12=
PLAYORDER=
